<?xml version="1.0" encoding="UTF-8"?>
<svg xmlns="http://www.w3.org/2000/svg" width="50" height="50" fill="none" viewBox="0 0 50 50">
    <path fill="#5191FA" fill-rule="evenodd" d="M46.232 27.334c1.178.08 2.345.737 3.046 1.716 1.112 1.554.812 3.584-.784 5.296-2.167 2.326-6.447 7.507-6.49 7.56a.735.735 0 0 1-.237.189L26.11 49.923a.734.734 0 0 1-.613.02l-14.736-6.205H.734a.734.734 0 0 1 0-1.468H10.91c.098 0 .195.02.285.057l14.562 6.132 15.215-7.608c.672-.812 4.41-5.318 6.449-7.506.414-.445 1.688-2.009.663-3.44-.666-.932-2.315-1.625-3.238-.648-2.221 2.352-7.487 8.673-7.54 8.737a.734.734 0 0 1-.488.26l-2.147.226a3.883 3.883 0 0 1-.707 2.063A3.901 3.901 0 0 1 29.67 42l-7.996-2.202a.734.734 0 1 1 .39-1.415l8.007 2.205c.643.176 1.335.136 1.921-.197a2.416 2.416 0 0 0 1.105-1.37c.191-.612.133-1.26-.165-1.828a2.382 2.382 0 0 0-1.409-1.175.75.75 0 0 1-.072-.027c-.13-.055-12.928-5.56-18.193-5.56-4.249 0-7.273 1.204-9.062 2.214-1.94 1.096-2.89 2.209-2.9 2.22a.735.735 0 0 1-1.126-.941c.169-.203 4.236-4.961 13.088-4.961 5.48 0 17.844 5.28 18.74 5.666.278.09.54.21.784.354 1.877-2.221 4.266-5.012 5.615-6.44.62-.656 1.491-.981 2.453-.916.906.061 1.805.466 2.49 1.094.156-.17.303-.328.439-.471.62-.657 1.491-.982 2.453-.916zm-11.775 9.693l1.912-.201c.791-.948 3.789-4.528 5.99-7.014-.443-.41-1.033-.682-1.608-.72-.365-.025-.885.034-1.287.459-1.39 1.47-3.986 4.516-5.585 6.408.247.324.442.684.578 1.068z" clip-rule="evenodd"/>
    <path fill="#5191FA" d="M41.438 14.873h-6.31V6.556a.734.734 0 1 0-1.468 0v9.05c0 .406.328.735.733.735h5.062L25 28.73 10.545 16.34h5.062a.734.734 0 0 0 .733-.734V1.467h17.32V3.18a.734.734 0 1 0 1.467 0V.734A.734.734 0 0 0 34.394 0H15.607a.734.734 0 0 0-.734.734v14.139H8.562c-.666 0-.984.857-.478 1.29l16.439 14.091a.74.74 0 0 0 .955 0l16.438-14.09c.507-.434.188-1.291-.478-1.291z"/>
    <path fill="#5191FA" d="M30.216 4.912a.734.734 0 0 0-1.038 0l-9.394 9.393c-.452.452-.122 1.253.52 1.253a.73.73 0 0 0 .518-.215l9.394-9.394a.734.734 0 0 0 0-1.037z"/>
    <path fill="#5191FA" fill-rule="evenodd" d="M26.615 13.258c0-1.267 1.031-2.3 2.299-2.3s2.3 1.033 2.3 2.3c0 1.268-1.032 2.3-2.3 2.3a2.302 2.302 0 0 1-2.3-2.3zm1.467 0a.833.833 0 0 0 1.664 0 .833.833 0 0 0-1.664 0zM18.787 6.996c0-1.268 1.031-2.3 2.3-2.3 1.267 0 2.299 1.032 2.299 2.3 0 1.268-1.032 2.3-2.3 2.3a2.302 2.302 0 0 1-2.3-2.3zm1.468 0a.833.833 0 0 0 1.663 0 .833.833 0 0 0-1.663 0z" clip-rule="evenodd"/>
</svg>
