<?xml version="1.0" encoding="UTF-8"?>
<svg xmlns="http://www.w3.org/2000/svg" width="50" height="49" fill="none" viewBox="0 0 50 49">
    <path fill="#5191FA" fill-rule="evenodd" d="M49.818 7.35c.003-3.132-2.015-5.922-5.026-6.946-3.01-1.024-6.35-.057-8.316 2.408-9.901-5.105-22.05-3.098-29.71 4.91s-8.956 20.053-3.17 29.46c5.787 9.407 17.239 13.87 28.008 10.915 10.769-2.955 18.216-12.604 18.214-23.598a23.845 23.845 0 0 0-2.312-10.285c1.268-2.31 2.312-4.822 2.312-6.864zm-7.475-5.716c3.21.004 5.81 2.561 5.814 5.716 0 3.68-4.175 9.555-5.814 11.722-1.639-2.167-5.813-8.037-5.813-11.722.004-3.155 2.605-5.712 5.813-5.716zM1.866 21.439a22.556 22.556 0 0 0-.215 3.06c.015 11.36 8.499 20.992 19.931 22.628v-2.213c0-.45.372-.816.83-.816h2.17l-1.296-3.825a.786.786 0 0 1 0-.516l1.296-3.825h-3.83a.835.835 0 0 1-.674-.34.805.805 0 0 1-.114-.735l1.573-4.642-1.384-4.083H17.43a.824.824 0 0 1-.83-.816v-4.083h-4.018l-4.855 1.59a.833.833 0 0 1-.475.016l-5.386-1.4zm23.038 25.925c-.559 0-1.112-.026-1.661-.064V45.73h2.491a.835.835 0 0 0 .674-.34.806.806 0 0 0 .114-.735l-1.573-4.641 1.573-4.642a.806.806 0 0 0-.114-.735.835.835 0 0 0-.674-.34h-3.83l1.296-3.825a.786.786 0 0 0 0-.516l-1.661-4.9a.83.83 0 0 0-.787-.558H18.26v-4.083a.824.824 0 0 0-.83-.817h-4.983a.844.844 0 0 0-.262.043l-4.748 1.556-5.295-1.376C4.365 9.447 13.538 1.929 24.315 1.649l1.375 4.068-1.573 4.642a.785.785 0 0 0 0 .516l1.573 4.641-1.573 4.642a.804.804 0 0 0-.044.258v4.9c0 .262.13.508.346.662a.842.842 0 0 0 .747.112l4.72-1.547 4.153 1.361v4.311c0 .451.372.817.83.817h4.153v3.266c0 .451.371.817.83.817h5.637c-4.016 7.525-11.942 12.242-20.585 12.25zm21.38-13.882a22.41 22.41 0 0 0 1.873-8.983 22.244 22.244 0 0 0-1.677-8.519 51.75 51.75 0 0 1-3.488 4.946.836.836 0 0 1-.649.307.836.836 0 0 1-.648-.307l-.01-.013c-.4-.498-6.816-8.488-6.816-13.563 0-1.09.25-2.165.729-3.148a23.527 23.527 0 0 0-9.531-2.531l1.285 3.788a.785.785 0 0 1 0 .516l-1.573 4.642 1.573 4.641a.785.785 0 0 1 0 .516l-1.618 4.774v3.634l3.89-1.274a.837.837 0 0 1 .525 0l4.983 1.634a.818.818 0 0 1 .568.774v4.083h4.152c.459 0 .83.365.83.816v3.267h5.603z" clip-rule="evenodd"/>
    <path fill="#5191FA" fill-rule="evenodd" d="M46.496 7.35c0 2.255-1.86 4.083-4.153 4.083-2.292-.002-4.15-1.829-4.152-4.083 0-2.255 1.86-4.083 4.152-4.083 2.294 0 4.153 1.828 4.153 4.083zm-1.661 0c0-1.353-1.116-2.45-2.492-2.45s-2.49 1.097-2.49 2.45c0 1.353 1.114 2.45 2.49 2.45 1.376 0 2.492-1.097 2.492-2.45zM4.973 30.215c.004-3.155 2.604-5.712 5.813-5.716 3.21.004 5.81 2.561 5.813 5.716 0 3.504-4.69 8.218-5.226 8.744a.84.84 0 0 1-1.174 0c-.535-.526-5.226-5.24-5.226-8.744zm1.661 0c0 2.096 2.613 5.334 4.152 6.983 1.54-1.65 4.152-4.887 4.152-6.983 0-2.255-1.859-4.083-4.152-4.083s-4.152 1.828-4.152 4.083z" clip-rule="evenodd"/>
    <path fill="#5191FA" fill-rule="evenodd" d="M8.295 30.215c0-1.353 1.115-2.45 2.491-2.45 1.376 0 2.492 1.097 2.492 2.45 0 1.353-1.116 2.45-2.492 2.45s-2.491-1.097-2.491-2.45zm1.66 0c0 .451.373.817.831.817.459 0 .83-.366.83-.817a.824.824 0 0 0-.83-.816.824.824 0 0 0-.83.816z" clip-rule="evenodd"/>
</svg>
